<svg width="25" height="24" viewBox="0 0 25 24" fill="none" xmlns="http://www.w3.org/2000/svg">
<path d="M8.5 7.5L17 7.5L17 16H8.5V7.5ZM6.5 7.5L6.49999 16.2231C6.49995 16.3423 6.49989 16.4845 6.51013 16.6098C6.522 16.755 6.55244 16.963 6.66349 17.181C6.8073 17.4632 7.03677 17.6927 7.31901 17.8365C7.53696 17.9476 7.74495 17.978 7.89017 17.9899C8.01545 18.0001 8.15765 18.0001 8.27675 18L17 18V21.2C17 21.48 17 21.62 17.0545 21.727C17.1024 21.8211 17.1789 21.8976 17.273 21.9455C17.38 22 17.52 22 17.8 22H18.2C18.48 22 18.62 22 18.727 21.9455C18.8211 21.8976 18.8976 21.8211 18.9455 21.727C19 21.62 19 21.48 19 21.2V18H21.7C21.98 18 22.12 18 22.227 17.9455C22.3211 17.8976 22.3976 17.8211 22.4455 17.727C22.5 17.62 22.5 17.48 22.5 17.2V16.8C22.5 16.52 22.5 16.38 22.4455 16.273C22.3976 16.1789 22.3211 16.1024 22.227 16.0545C22.12 16 21.98 16 21.7 16H19L19 7.27686C19.0001 7.15775 19.0001 7.01548 18.9899 6.89017C18.978 6.74495 18.9476 6.53696 18.8365 6.31901C18.6927 6.03677 18.4632 5.8073 18.181 5.66349C17.963 5.55244 17.755 5.522 17.6098 5.51013C17.4846 5.4999 17.3423 5.49995 17.2233 5.49999L8.5 5.5V2.8C8.5 2.51997 8.5 2.37996 8.4455 2.273C8.39757 2.17892 8.32108 2.10243 8.22699 2.0545C8.12004 2 7.98003 2 7.7 2H7.3C7.01997 2 6.87996 2 6.773 2.0545C6.67892 2.10243 6.60243 2.17892 6.5545 2.273C6.5 2.37996 6.5 2.51997 6.5 2.8V5.5L3.3 5.5C3.01997 5.5 2.87996 5.5 2.773 5.5545C2.67892 5.60243 2.60243 5.67892 2.5545 5.773C2.5 5.87996 2.5 6.01997 2.5 6.3V6.7C2.5 6.98003 2.5 7.12004 2.5545 7.22699C2.60243 7.32107 2.67892 7.39756 2.773 7.4455C2.87996 7.5 3.01997 7.5 3.3 7.5L6.5 7.5Z" fill="black" fill-opacity="0.32"/>
</svg>
